<svg width="58" height="58" viewBox="0 0 58 58" fill="none" xmlns="http://www.w3.org/2000/svg">
<path d="M28.9999 41.0833C29.6846 41.0833 30.259 40.8513 30.723 40.3873C31.187 39.9233 31.4182 39.3498 31.4166 38.6666C31.4166 37.9819 31.1846 37.4076 30.7206 36.9436C30.2566 36.4796 29.683 36.2484 28.9999 36.25C28.3152 36.25 27.7408 36.482 27.2768 36.946C26.8128 37.41 26.5816 37.9835 26.5833 38.6666C26.5833 39.3514 26.8153 39.9257 27.2793 40.3897C27.7433 40.8537 28.3168 41.0849 28.9999 41.0833ZM26.5833 31.4166H31.4166V16.9166H26.5833V31.4166ZM28.9999 53.1666C25.6569 53.1666 22.5152 52.5319 19.5749 51.2623C16.6346 49.9928 14.077 48.2713 11.902 46.0979C9.727 43.9229 8.00553 41.3653 6.73759 38.425C5.46964 35.4847 4.83486 32.343 4.83325 29C4.83325 25.6569 5.46803 22.5153 6.73759 19.575C8.00714 16.6347 9.72861 14.0771 11.902 11.9021C14.077 9.72706 16.6346 8.00559 19.5749 6.73765C22.5152 5.4697 25.6569 4.83492 28.9999 4.83331C32.343 4.83331 35.4846 5.46809 38.4249 6.73765C41.3652 8.0072 43.9228 9.72867 46.0978 11.9021C48.2728 14.0771 49.9951 16.6347 51.2647 19.575C52.5342 22.5153 53.1682 25.6569 53.1666 29C53.1666 32.343 52.5318 35.4847 51.2623 38.425C49.9927 41.3653 48.2712 43.9229 46.0978 46.0979C43.9228 48.2729 41.3652 49.9952 38.4249 51.2647C35.4846 52.5343 32.343 53.1683 28.9999 53.1666ZM28.9999 48.3333C34.3971 48.3333 38.9687 46.4604 42.7145 42.7146C46.4603 38.9687 48.3333 34.3972 48.3333 29C48.3333 23.6028 46.4603 19.0312 42.7145 15.2854C38.9687 11.5396 34.3971 9.66665 28.9999 9.66665C23.6027 9.66665 19.0312 11.5396 15.2853 15.2854C11.5395 19.0312 9.66659 23.6028 9.66659 29C9.66659 34.3972 11.5395 38.9687 15.2853 42.7146C19.0312 46.4604 23.6027 48.3333 28.9999 48.3333Z" fill="white"/>
</svg>
