<svg width="51" height="50" viewBox="0 0 51 50" fill="none" xmlns="http://www.w3.org/2000/svg">
<path d="M5.49951 22.0625L17.5412 9.99996L21.062 13.5416C20.562 15.3125 21.3745 17.25 22.9995 18.1875V29.7291C21.7495 30.4375 20.9162 31.7916 20.9162 33.3333C20.9162 34.4384 21.3552 35.4982 22.1366 36.2796C22.918 37.061 23.9778 37.5 25.0828 37.5C26.1879 37.5 27.2477 37.061 28.0291 36.2796C28.8105 35.4982 29.2495 34.4384 29.2495 33.3333C29.2495 31.7916 28.4162 30.4375 27.1662 29.7291V19.6041L31.4787 23.9583C31.3328 24.2708 31.3328 24.625 31.3328 25C31.3328 26.105 31.7718 27.1648 32.5532 27.9462C33.3346 28.7276 34.3944 29.1666 35.4995 29.1666C36.6046 29.1666 37.6644 28.7276 38.4458 27.9462C39.2272 27.1648 39.6662 26.105 39.6662 25C39.6662 23.8949 39.2272 22.8351 38.4458 22.0537C37.6644 21.2723 36.6046 20.8333 35.4995 20.8333C35.1245 20.8333 34.7703 20.8333 34.4578 20.9791L29.1037 15.625C29.3624 14.66 29.2621 13.634 28.8214 12.7374C28.3808 11.8409 27.6298 11.1347 26.7078 10.75C25.812 10.4166 24.8745 10.3333 24.0412 10.5625L20.4995 7.04163L22.1453 5.41663C23.7703 3.77079 26.3953 3.77079 28.0203 5.41663L44.6662 22.0625C46.312 23.6875 46.312 26.3125 44.6662 27.9375L28.0203 44.5833C26.3953 46.2291 23.7703 46.2291 22.1453 44.5833L5.49951 27.9375C3.85368 26.3125 3.85368 23.6875 5.49951 22.0625Z" fill="white"/>
</svg>
