<svg width="51" height="50" viewBox="0 0 51 50" fill="none" xmlns="http://www.w3.org/2000/svg">
<path d="M5.49976 22.0625L17.5414 9.99996L21.0623 13.5416C20.5623 15.3125 21.3748 17.25 22.9998 18.1875V29.7291C21.7498 30.4375 20.9164 31.7916 20.9164 33.3333C20.9164 34.4384 21.3554 35.4982 22.1368 36.2796C22.9182 37.061 23.978 37.5 25.0831 37.5C26.1882 37.5 27.248 37.061 28.0294 36.2796C28.8108 35.4982 29.2498 34.4384 29.2498 33.3333C29.2498 31.7916 28.4164 30.4375 27.1664 29.7291V19.6041L31.4789 23.9583C31.3331 24.2708 31.3331 24.625 31.3331 25C31.3331 26.105 31.7721 27.1648 32.5535 27.9462C33.3349 28.7276 34.3947 29.1666 35.4998 29.1666C36.6048 29.1666 37.6646 28.7276 38.446 27.9462C39.2274 27.1648 39.6664 26.105 39.6664 25C39.6664 23.8949 39.2274 22.8351 38.446 22.0537C37.6646 21.2723 36.6048 20.8333 35.4998 20.8333C35.1248 20.8333 34.7706 20.8333 34.4581 20.9791L29.1039 15.625C29.3626 14.66 29.2623 13.634 28.8217 12.7374C28.3811 11.8409 27.63 11.1347 26.7081 10.75C25.8123 10.4166 24.8748 10.3333 24.0414 10.5625L20.4998 7.04163L22.1456 5.41663C23.7706 3.77079 26.3956 3.77079 28.0206 5.41663L44.6664 22.0625C46.3123 23.6875 46.3123 26.3125 44.6664 27.9375L28.0206 44.5833C26.3956 46.2291 23.7706 46.2291 22.1456 44.5833L5.49976 27.9375C3.85392 26.3125 3.85392 23.6875 5.49976 22.0625Z" fill="black"/>
</svg>
