<svg width="51" height="50" viewBox="0 0 51 50" fill="none" xmlns="http://www.w3.org/2000/svg">
<path d="M29.0414 8.8125C27.2914 6.72917 25.7706 4.64583 25.4789 4.1875H25.4164C25.1248 4.625 23.6039 6.72917 21.8539 8.8125C6.85395 27.9583 24.2289 40.875 24.2289 40.875L24.3748 40.9792C24.4998 42.9583 24.8331 45.8333 24.8331 45.8333H26.1248C26.1248 45.8333 26.4373 42.9792 26.5623 40.9792L26.7081 40.8542C26.7081 40.8542 44.0414 27.9583 29.0414 8.8125ZM25.4164 40.5833C25.0513 40.2834 24.7164 39.9485 24.4164 39.5833L25.4164 18.75L26.3539 39.5833C26.0729 39.9448 25.7591 40.2796 25.4164 40.5833Z" fill="black"/>
</svg>
