<svg width="51" height="50" viewBox="0 0 51 50" fill="none" xmlns="http://www.w3.org/2000/svg">
<path d="M29.0416 8.8125C27.2916 6.72917 25.7707 4.64583 25.4791 4.1875H25.4166C25.1249 4.625 23.6041 6.72917 21.8541 8.8125C6.85407 27.9583 24.2291 40.875 24.2291 40.875L24.3749 40.9792C24.4999 42.9583 24.8332 45.8333 24.8332 45.8333H26.1249C26.1249 45.8333 26.4374 42.9792 26.5624 40.9792L26.7082 40.8542C26.7082 40.8542 44.0416 27.9583 29.0416 8.8125ZM25.4166 40.5833C25.0514 40.2834 24.7165 39.9485 24.4166 39.5833L25.4166 18.75L26.3541 39.5833C26.073 39.9448 25.7592 40.2796 25.4166 40.5833Z" fill="white"/>
</svg>
