<svg width="50" height="50" viewBox="0 0 50 50" fill="none" xmlns="http://www.w3.org/2000/svg">
<path d="M15 15L16.35 14.0233C16.1435 13.7381 15.8519 13.5256 15.5172 13.4163C15.1824 13.3071 14.8217 13.3066 14.4866 13.4151C14.1516 13.5235 13.8596 13.7353 13.6524 14.0201C13.4452 14.3048 13.3335 14.6479 13.3333 15H15ZM25 46.6667C19.2536 46.6667 13.7426 44.3839 9.67935 40.3206C5.61606 36.2574 3.33333 30.7464 3.33333 25H0C0 31.6304 2.63392 37.9893 7.32233 42.6777C12.0107 47.3661 18.3696 50 25 50V46.6667ZM46.6667 25C46.6667 27.8453 46.1062 30.6628 45.0174 33.2915C43.9285 35.9202 42.3326 38.3087 40.3206 40.3206C38.3087 42.3326 35.9202 43.9285 33.2915 45.0174C30.6628 46.1062 27.8453 46.6667 25 46.6667V50C31.6304 50 37.9893 47.3661 42.6777 42.6777C47.3661 37.9893 50 31.6304 50 25H46.6667ZM25 3.33333C27.8453 3.33333 30.6628 3.89376 33.2915 4.98261C35.9202 6.07146 38.3087 7.66742 40.3206 9.67935C42.3326 11.6913 43.9285 14.0798 45.0174 16.7085C46.1062 19.3372 46.6667 22.1547 46.6667 25H50C50 18.3696 47.3661 12.0107 42.6777 7.32233C37.9893 2.63392 31.6304 0 25 0V3.33333ZM25 0C18.3696 0 12.0107 2.63392 7.32233 7.32233C2.63392 12.0107 0 18.3696 0 25H3.33333C3.33333 19.2536 5.61606 13.7426 9.67935 9.67935C13.7426 5.61606 19.2536 3.33333 25 3.33333V0ZM16.6667 40V15H13.3333V40H16.6667ZM13.65 15.9767L35.3167 45.9767L38.0167 44.0233L16.35 14.0233L13.65 15.9767ZM33.3333 13.3333V33.3333H36.6667V13.3333H33.3333Z" fill="white"/>
</svg>
