<svg width="50" height="50" viewBox="0 0 50 50" fill="none" xmlns="http://www.w3.org/2000/svg">
<path d="M30.0999 33.8334C28.9844 35.4197 27.7687 36.9332 26.4604 38.3646C29.9437 41.7459 33.1854 43.3292 34.9812 42.2896C36.7812 41.2521 37.0291 37.6542 35.8437 32.9479C34.0666 33.3438 32.1354 33.6438 30.0999 33.8334ZM27.3708 34.0146C25.7909 34.08 24.209 34.08 22.6291 34.0146C23.4145 35.0396 24.2083 35.9896 24.9999 36.8563C25.7916 35.9896 26.5833 35.0396 27.3708 34.0146ZM37.8708 17.5688C43.4229 19.1604 47.0479 21.8063 47.0479 25C47.0479 28.1938 43.4229 30.8396 37.8708 32.4313C39.2666 38.0354 38.7895 42.4979 36.0249 44.0938C33.2583 45.6917 29.1541 43.875 24.9999 39.8646C20.8458 43.875 16.7416 45.6917 13.9749 44.0938C11.2104 42.4979 10.7312 38.0354 12.1291 32.4313C6.57703 30.8396 2.95203 28.1938 2.95203 25C2.95203 21.8063 6.57703 19.1604 12.1291 17.5688C10.7333 11.9646 11.2104 7.50211 13.9749 5.90628C16.7416 4.30836 20.8458 6.12503 24.9999 10.1354C29.1541 6.12503 33.2583 4.30836 36.0249 5.90628C38.7895 7.50211 39.2687 11.9646 37.8708 17.5688ZM35.8437 17.0521C37.0312 12.3438 36.7812 8.74794 34.9833 7.71044C33.1854 6.67086 29.9437 8.25419 26.4624 11.6354C27.7694 13.0676 28.9843 14.581 30.0999 16.1667C32.1374 16.3542 34.0666 16.6542 35.8437 17.0521ZM14.1562 32.9479C12.9687 37.6563 13.2187 41.2521 15.0166 42.2896C16.8145 43.3292 20.0562 41.7459 23.5374 38.3646C22.2298 36.9331 21.0148 35.4196 19.8999 33.8334C17.9685 33.6607 16.05 33.365 14.1562 32.9479ZM22.6291 15.9854C24.209 15.92 25.7909 15.92 27.3708 15.9854C26.6218 15.0052 25.8308 14.0577 24.9999 13.1459C24.2083 14.0125 23.4166 14.9604 22.6291 15.9854ZM19.8999 16.1667C21.0162 14.5803 22.2325 13.0668 23.5416 11.6354C20.0562 8.25419 16.8124 6.67086 15.0187 7.71044C13.2187 8.74794 12.9708 12.3459 14.1562 17.0521C15.9333 16.6563 17.8645 16.3563 19.8999 16.1667ZM28.9458 31.8334C30.4288 29.657 31.747 27.3729 32.8895 25C31.747 22.6272 30.4288 20.343 28.9458 18.1667C26.3189 17.97 23.681 17.97 21.0541 18.1667C19.5711 20.343 18.2529 22.6272 17.1104 25C18.2529 27.3729 19.5711 29.657 21.0541 31.8334C23.681 32.03 26.3189 32.03 28.9458 31.8334ZM31.6208 31.5604C32.902 31.3938 34.1208 31.1792 35.2666 30.9271C34.8919 29.7516 34.4665 28.5929 33.9916 27.4542C33.2583 28.8544 32.4673 30.2236 31.6208 31.5584V31.5604ZM18.3791 18.4375C17.0979 18.6042 15.8791 18.8188 14.7333 19.0709C15.0874 20.1875 15.5124 21.35 16.0083 22.5438C16.7416 21.1436 17.5326 19.7723 18.3791 18.4375ZM14.7333 30.925C15.8791 31.1771 17.0979 31.3896 18.3791 31.5584C17.5326 30.2236 16.7416 28.8544 16.0083 27.4542C15.5332 28.5921 15.1078 29.7502 14.7333 30.925ZM12.6958 30.4146C13.2395 28.6771 13.9458 26.8563 14.7999 24.9979C13.9847 23.2387 13.2819 21.4295 12.6958 19.5813C8.02494 20.9084 5.03536 22.9229 5.03536 24.9979C5.03536 27.0729 8.02494 29.0875 12.6958 30.4146ZM35.2666 19.0709C34.0609 18.808 32.8445 18.5966 31.6208 18.4375C32.4673 19.7723 33.2583 21.1415 33.9916 22.5417C34.4874 21.35 34.9124 20.1875 35.2666 19.0709ZM37.3041 19.5813C36.7604 21.3188 36.0541 23.1396 35.1999 24.9979C36.0541 26.8563 36.7604 28.6771 37.3041 30.4146C41.9749 29.0875 44.9645 27.0729 44.9645 24.9979C44.9645 22.9229 41.9749 20.9084 37.3041 19.5813ZM24.9999 28.9167C24.4856 28.9167 23.9763 28.8154 23.5011 28.6186C23.0259 28.4217 22.5941 28.1332 22.2304 27.7695C21.8667 27.4058 21.5782 26.9741 21.3814 26.4989C21.1846 26.0237 21.0833 25.5144 21.0833 25C21.0833 24.4857 21.1846 23.9764 21.3814 23.5012C21.5782 23.026 21.8667 22.5942 22.2304 22.2305C22.5941 21.8668 23.0259 21.5783 23.5011 21.3815C23.9763 21.1847 24.4856 21.0834 24.9999 21.0834C26.0387 21.0834 27.0349 21.496 27.7694 22.2305C28.504 22.965 28.9166 23.9613 28.9166 25C28.9166 26.0388 28.504 27.035 27.7694 27.7695C27.0349 28.504 26.0387 28.9167 24.9999 28.9167Z" fill="black"/>
</svg>
