<svg width="50" height="50" viewBox="0 0 50 50" fill="none" xmlns="http://www.w3.org/2000/svg">
<path d="M30.1001 33.8334C28.9845 35.4197 27.7688 36.9332 26.4605 38.3646C29.9438 41.7459 33.1855 43.3292 34.9813 42.2896C36.7813 41.2521 37.0292 37.6542 35.8438 32.9479C34.0667 33.3438 32.1355 33.6438 30.1001 33.8334ZM27.3709 34.0146C25.791 34.08 24.2091 34.08 22.6292 34.0146C23.4146 35.0396 24.2084 35.9896 25.0001 36.8563C25.7917 35.9896 26.5834 35.0396 27.3709 34.0146ZM37.8709 17.5688C43.423 19.1604 47.048 21.8063 47.048 25C47.048 28.1938 43.423 30.8396 37.8709 32.4313C39.2667 38.0354 38.7896 42.4979 36.0251 44.0938C33.2584 45.6917 29.1542 43.875 25.0001 39.8646C20.8459 43.875 16.7417 45.6917 13.9751 44.0938C11.2105 42.4979 10.7313 38.0354 12.1292 32.4313C6.57715 30.8396 2.95215 28.1938 2.95215 25C2.95215 21.8063 6.57715 19.1604 12.1292 17.5688C10.7334 11.9646 11.2105 7.50211 13.9751 5.90628C16.7417 4.30836 20.8459 6.12503 25.0001 10.1354C29.1542 6.12503 33.2584 4.30836 36.0251 5.90628C38.7896 7.50211 39.2688 11.9646 37.8709 17.5688ZM35.8438 17.0521C37.0313 12.3438 36.7813 8.74794 34.9834 7.71044C33.1855 6.67086 29.9438 8.25419 26.4626 11.6354C27.7695 13.0676 28.9844 14.581 30.1001 16.1667C32.1376 16.3542 34.0667 16.6542 35.8438 17.0521ZM14.1563 32.9479C12.9688 37.6563 13.2188 41.2521 15.0167 42.2896C16.8146 43.3292 20.0563 41.7459 23.5376 38.3646C22.2299 36.9331 21.0149 35.4196 19.9001 33.8334C17.9686 33.6607 16.0501 33.365 14.1563 32.9479ZM22.6292 15.9854C24.2091 15.92 25.791 15.92 27.3709 15.9854C26.622 15.0052 25.8309 14.0577 25.0001 13.1459C24.2084 14.0125 23.4167 14.9604 22.6292 15.9854ZM19.9001 16.1667C21.0163 14.5803 22.2327 13.0668 23.5417 11.6354C20.0563 8.25419 16.8126 6.67086 15.0188 7.71044C13.2188 8.74794 12.9709 12.3459 14.1563 17.0521C15.9334 16.6563 17.8646 16.3563 19.9001 16.1667ZM28.9459 31.8334C30.4289 29.657 31.7472 27.3729 32.8896 25C31.7472 22.6272 30.4289 20.343 28.9459 18.1667C26.319 17.97 23.6811 17.97 21.0542 18.1667C19.5712 20.343 18.253 22.6272 17.1105 25C18.253 27.3729 19.5712 29.657 21.0542 31.8334C23.6811 32.03 26.319 32.03 28.9459 31.8334ZM31.6209 31.5604C32.9021 31.3938 34.1209 31.1792 35.2667 30.9271C34.892 29.7516 34.4666 28.5929 33.9917 27.4542C33.2584 28.8544 32.4674 30.2236 31.6209 31.5584V31.5604ZM18.3792 18.4375C17.098 18.6042 15.8792 18.8188 14.7334 19.0709C15.0876 20.1875 15.5126 21.35 16.0084 22.5438C16.7417 21.1436 17.5327 19.7723 18.3792 18.4375ZM14.7334 30.925C15.8792 31.1771 17.098 31.3896 18.3792 31.5584C17.5327 30.2236 16.7417 28.8544 16.0084 27.4542C15.5333 28.5921 15.1079 29.7502 14.7334 30.925ZM12.6959 30.4146C13.2396 28.6771 13.9459 26.8563 14.8001 24.9979C13.9848 23.2387 13.282 21.4295 12.6959 19.5813C8.02506 20.9084 5.03548 22.9229 5.03548 24.9979C5.03548 27.0729 8.02506 29.0875 12.6959 30.4146ZM35.2667 19.0709C34.061 18.808 32.8446 18.5967 31.6209 18.4375C32.4674 19.7723 33.2584 21.1415 33.9917 22.5417C34.4876 21.35 34.9126 20.1875 35.2667 19.0709ZM37.3042 19.5813C36.7605 21.3188 36.0542 23.1396 35.2001 24.9979C36.0542 26.8563 36.7605 28.6771 37.3042 30.4146C41.9751 29.0875 44.9646 27.0729 44.9646 24.9979C44.9646 22.9229 41.9751 20.9084 37.3042 19.5813ZM25.0001 28.9167C24.4857 28.9167 23.9764 28.8154 23.5012 28.6186C23.026 28.4217 22.5943 28.1332 22.2306 27.7695C21.8669 27.4058 21.5784 26.9741 21.3815 26.4989C21.1847 26.0237 21.0834 25.5144 21.0834 25C21.0834 24.4857 21.1847 23.9764 21.3815 23.5012C21.5784 23.026 21.8669 22.5942 22.2306 22.2305C22.5943 21.8668 23.026 21.5783 23.5012 21.3815C23.9764 21.1847 24.4857 21.0834 25.0001 21.0834C26.0388 21.0834 27.035 21.496 27.7696 22.2305C28.5041 22.965 28.9167 23.9613 28.9167 25C28.9167 26.0388 28.5041 27.035 27.7696 27.7695C27.035 28.504 26.0388 28.9167 25.0001 28.9167Z" fill="white"/>
</svg>
