<svg width="50" height="50" viewBox="0 0 50 50" fill="none" xmlns="http://www.w3.org/2000/svg">
<path d="M25 4.16663C27.7359 4.16663 30.445 4.7055 32.9726 5.75247C35.5002 6.79944 37.7968 8.33401 39.7314 10.2686C41.666 12.2031 43.2005 14.4998 44.2475 17.0274C45.2945 19.555 45.8333 22.2641 45.8333 25C45.8333 30.5253 43.6384 35.8243 39.7314 39.7314C35.8244 43.6384 30.5254 45.8333 25 45.8333C22.2641 45.8333 19.5551 45.2944 17.0274 44.2475C14.4998 43.2005 12.2032 41.6659 10.2686 39.7314C6.36161 35.8243 4.16667 30.5253 4.16667 25C4.16667 19.4746 6.36161 14.1756 10.2686 10.2686C14.1756 6.36156 19.4747 4.16663 25 4.16663ZM20.8333 31.9375C21.1667 33.0625 21.125 34.1041 20.8333 35.0625C20.8333 35.1666 20.75 35.2708 20.7083 35.4166C20.6667 35.4166 20.625 35.5625 20.5625 35.6666C20.3333 36.1666 20 36.6458 19.6042 37.0625C18.3958 38.3958 16.6667 38.8958 15.9792 38.4791C15.1875 38.0208 15.625 36.1458 17 34.6666C18.5 33.0833 20.6667 32.0416 20.6667 32.0416L20.8333 31.9375ZM38.0625 13.0833C37.125 9.37496 30.9792 8.16663 25.1875 10.2291C21.7292 11.4583 17.9792 13.375 15.2917 15.8958C12.1042 18.8958 11.5833 21.5 11.7917 22.5833C12.5 26.4166 17.7917 28.9375 19.9583 30.7916V30.8125C19.3333 31.125 14.6667 33.4791 13.5417 35.8958C12.4167 38.4375 13.75 40.2708 14.5833 40.5208C17.375 41.2708 20.1875 39.9166 21.6875 37.6458C23.1458 35.4791 23.0417 32.6666 22.3958 31.25C23.2708 31.0416 24.2917 30.9375 25.5833 31.0833C29.25 31.5208 29.9583 33.7916 29.8125 34.75C29.6875 35.7083 28.9167 36.2291 28.6667 36.3958C28.4167 36.5416 28.3333 36.6041 28.3542 36.7291C28.375 36.8958 28.5 36.8958 28.7083 36.8541C29.0208 36.7916 30.6458 36.0833 30.7083 34.3125C30.7917 32.0625 28.6458 29.5625 24.8542 29.625C23.2917 29.6666 22.3125 29.8125 21.6042 30.0833L21.4375 29.8958C19.0833 27.3958 14.75 25.625 14.9375 22.25C15 21.0208 15.4167 17.8125 23.2708 13.8958C29.6875 10.6875 34.8333 11.5625 35.7292 13.5416C37 16.3125 32.9792 21.5 26.3125 22.25C23.7708 22.5416 22.4167 21.5416 22.0833 21.1875C21.7292 20.8333 21.6875 20.7708 21.5625 20.8333C21.3333 20.9791 21.4792 21.3125 21.5625 21.5208C21.75 22.0416 22.5833 22.9166 23.9583 23.4166C25.1875 23.8125 28.1875 24.0416 31.7917 22.6458C35.8333 21.0833 39 16.7291 38.0625 13.0833Z" fill="white"/>
</svg>
