<svg width="42" height="42" viewBox="0 0 42 42" fill="none" xmlns="http://www.w3.org/2000/svg">
<path d="M20.8333 0C23.5692 0 26.2783 0.53887 28.8059 1.58584C31.3335 2.63282 33.6302 4.16739 35.5647 6.10194C37.4993 8.0365 39.0339 10.3331 40.0808 12.8608C41.1278 15.3884 41.6667 18.0975 41.6667 20.8333C41.6667 26.3587 39.4717 31.6577 35.5647 35.5647C31.6577 39.4717 26.3587 41.6667 20.8333 41.6667C18.0975 41.6667 15.3884 41.1278 12.8608 40.0808C10.3331 39.0339 8.0365 37.4993 6.10194 35.5647C2.19493 31.6577 0 26.3587 0 20.8333C0 15.308 2.19493 10.009 6.10194 6.10194C10.009 2.19493 15.308 0 20.8333 0ZM16.6667 27.7708C17 28.8958 16.9583 29.9375 16.6667 30.8958C16.6667 31 16.5833 31.1042 16.5417 31.25C16.5 31.25 16.4583 31.3958 16.3958 31.5C16.1667 32 15.8333 32.4792 15.4375 32.8958C14.2292 34.2292 12.5 34.7292 11.8125 34.3125C11.0208 33.8542 11.4583 31.9792 12.8333 30.5C14.3333 28.9167 16.5 27.875 16.5 27.875L16.6667 27.7708ZM33.8958 8.91667C32.9583 5.20833 26.8125 4 21.0208 6.0625C17.5625 7.29167 13.8125 9.20833 11.125 11.7292C7.9375 14.7292 7.41667 17.3333 7.625 18.4167C8.33333 22.25 13.625 24.7708 15.7917 26.625V26.6458C15.1667 26.9583 10.5 29.3125 9.375 31.7292C8.25 34.2708 9.58333 36.1042 10.4167 36.3542C13.2083 37.1042 16.0208 35.75 17.5208 33.4792C18.9792 31.3125 18.875 28.5 18.2292 27.0833C19.1042 26.875 20.125 26.7708 21.4167 26.9167C25.0833 27.3542 25.7917 29.625 25.6458 30.5833C25.5208 31.5417 24.75 32.0625 24.5 32.2292C24.25 32.375 24.1667 32.4375 24.1875 32.5625C24.2083 32.7292 24.3333 32.7292 24.5417 32.6875C24.8542 32.625 26.4792 31.9167 26.5417 30.1458C26.625 27.8958 24.4792 25.3958 20.6875 25.4583C19.125 25.5 18.1458 25.6458 17.4375 25.9167L17.2708 25.7292C14.9167 23.2292 10.5833 21.4583 10.7708 18.0833C10.8333 16.8542 11.25 13.6458 19.1042 9.72917C25.5208 6.52083 30.6667 7.39583 31.5625 9.375C32.8333 12.1458 28.8125 17.3333 22.1458 18.0833C19.6042 18.375 18.25 17.375 17.9167 17.0208C17.5625 16.6667 17.5208 16.6042 17.3958 16.6667C17.1667 16.8125 17.3125 17.1458 17.3958 17.3542C17.5833 17.875 18.4167 18.75 19.7917 19.25C21.0208 19.6458 24.0208 19.875 27.625 18.4792C31.6667 16.9167 34.8333 12.5625 33.8958 8.91667Z" fill="black"/>
</svg>
