<svg width="43" height="26" viewBox="0 0 43 26" fill="none" xmlns="http://www.w3.org/2000/svg">
<path d="M21.2498 0.5C15.6873 0.5 12.229 3.27083 10.8332 8.83333C12.9165 6.0625 15.354 5.02083 18.1248 5.70833C19.7082 6.10417 20.854 7.25 22.104 8.52083C24.1457 10.6042 26.4582 13 31.6665 13C37.229 13 40.6873 10.2292 42.0832 4.66667C39.9998 7.4375 37.5623 8.47917 34.7915 7.79167C33.2082 7.39583 32.0832 6.25 30.8123 4.97917C28.7707 2.89583 26.4582 0.5 21.2498 0.5ZM10.8332 13C5.27067 13 1.81234 15.7708 0.416504 21.3333C2.49984 18.5625 4.93734 17.5208 7.70817 18.2083C9.2915 18.6042 10.4165 19.75 11.6873 21.0208C13.729 23.1042 16.0415 25.5 21.2498 25.5C26.8123 25.5 30.2707 22.7292 31.6665 17.1667C29.5832 19.9375 27.1457 20.9792 24.3748 20.2917C22.7915 19.8958 21.6665 18.75 20.3957 17.4792C18.354 15.3958 16.0415 13 10.8332 13Z" fill="white"/>
</svg>
