<svg width="50" height="50" viewBox="0 0 50 50" fill="none" xmlns="http://www.w3.org/2000/svg">
<path d="M6.25 6.25H43.75V43.75H6.25V6.25ZM28.5625 37.2083C29.6042 39.25 31.7083 40.8125 35 40.8125C38.3333 40.8125 40.8333 39.0833 40.8333 35.8958C40.8333 32.9583 39.1458 31.6458 36.1458 30.3542L35.2708 29.9792C33.75 29.3333 33.1042 28.8958 33.1042 27.8542C33.1042 27 33.75 26.3333 34.7917 26.3333C35.7917 26.3333 36.4583 26.7708 37.0625 27.8542L39.7917 26.0417C38.6458 24.0417 37.0208 23.2708 34.7917 23.2708C31.6458 23.2708 29.625 25.2708 29.625 27.9167C29.625 30.7917 31.3125 32.1458 33.8542 33.2292L34.7292 33.6042C36.3542 34.3125 37.3125 34.75 37.3125 35.9583C37.3125 36.9583 36.375 37.6875 34.9167 37.6875C33.1875 37.6875 32.1875 36.7917 31.4375 35.5417L28.5625 37.2083ZM27.0833 23.4375H16.6667V26.5625H19.7917V41.6667H23.4375V26.5625H27.0833V23.4375Z" fill="black"/>
</svg>
