<svg width="20" height="21" viewBox="0 0 20 21" fill="none" xmlns="http://www.w3.org/2000/svg">
<path d="M10 10.5C10.4583 10.5 10.8508 10.3367 11.1775 10.01C11.5042 9.68335 11.6672 9.29113 11.6667 8.83335C11.6667 8.37502 11.5033 7.98252 11.1767 7.65585C10.85 7.32919 10.4578 7.16613 10 7.16669C9.54168 7.16669 9.14918 7.33002 8.82251 7.65669C8.49584 7.98335 8.33279 8.37558 8.33334 8.83335C8.33334 9.29169 8.49668 9.68419 8.82334 10.0109C9.15001 10.3375 9.54223 10.5006 10 10.5ZM10 16.625C11.6945 15.0695 12.9514 13.6561 13.7708 12.385C14.5903 11.1139 15 9.98558 15 9.00002C15 7.48613 14.5172 6.24669 13.5517 5.28169C12.5861 4.31669 11.4022 3.83391 10 3.83335C8.59723 3.83335 7.41307 4.31613 6.44751 5.28169C5.48195 6.24724 4.99945 7.48669 5.00001 9.00002C5.00001 9.98613 5.40973 11.1147 6.22918 12.3859C7.04862 13.657 8.30557 15.07 10 16.625ZM10 18.8334C7.7639 16.9306 6.0939 15.1634 4.99001 13.5317C3.88612 11.9 3.3339 10.3895 3.33334 9.00002C3.33334 6.91669 4.00362 5.25696 5.34418 4.02085C6.68473 2.78474 8.23668 2.16669 10 2.16669C11.7639 2.16669 13.3161 2.78474 14.6567 4.02085C15.9972 5.25696 16.6672 6.91669 16.6667 9.00002C16.6667 10.3889 16.1145 11.8995 15.01 13.5317C13.9056 15.1639 12.2356 16.9311 10 18.8334Z" fill="white"/>
</svg>
