<svg width="20" height="20" viewBox="0 0 20 20" fill="none" xmlns="http://www.w3.org/2000/svg">
<path d="M10 9.99996C10.4584 9.99996 10.8509 9.83663 11.1775 9.50996C11.5042 9.18329 11.6673 8.79107 11.6667 8.33329C11.6667 7.87496 11.5034 7.48246 11.1767 7.15579C10.85 6.82913 10.4578 6.66607 10 6.66663C9.54171 6.66663 9.14921 6.82996 8.82254 7.15663C8.49587 7.48329 8.33282 7.87551 8.33337 8.33329C8.33337 8.79163 8.49671 9.18413 8.82337 9.51079C9.15004 9.83746 9.54226 10.0005 10 9.99996ZM10 16.125C11.6945 14.5694 12.9514 13.1561 13.7709 11.885C14.5903 10.6138 15 9.48551 15 8.49996C15 6.98607 14.5173 5.74663 13.5517 4.78163C12.5862 3.81663 11.4023 3.33385 10 3.33329C8.59726 3.33329 7.4131 3.81607 6.44754 4.78163C5.48199 5.74718 4.99949 6.98663 5.00004 8.49996C5.00004 9.48607 5.40976 10.6147 6.22921 11.8858C7.04865 13.1569 8.3056 14.57 10 16.125ZM10 18.3333C7.76393 16.4305 6.09393 14.6633 4.99004 13.0316C3.88615 11.4 3.33393 9.8894 3.33337 8.49996C3.33337 6.41663 4.00365 4.7569 5.34421 3.52079C6.68476 2.28468 8.23671 1.66663 10 1.66663C11.7639 1.66663 13.3162 2.28468 14.6567 3.52079C15.9973 4.7569 16.6673 6.41663 16.6667 8.49996C16.6667 9.88885 16.1145 11.3994 15.01 13.0316C13.9056 14.6638 12.2356 16.4311 10 18.3333Z" fill="#1E1E1E"/>
</svg>
